<?xml version="1.0" encoding="UTF-8" standalone="no"?>
<!DOCTYPE svg PUBLIC "-//W3C//DTD SVG 1.1//EN"
 "http://www.w3.org/Graphics/SVG/1.1/DTD/svg11.dtd">
<!-- Generated by graphviz version 2.40.1 (20161225.0304)
 -->
<!-- Title: dependencies Pages: 1 -->
<svg width="816pt" height="211pt"
 viewBox="0.00 0.00 816.00 211.00" xmlns="http://www.w3.org/2000/svg" xmlns:xlink="http://www.w3.org/1999/xlink">
<g id="graph0" class="graph" transform="scale(1 1) rotate(0) translate(4 207)">
<title>dependencies</title>
<polygon fill="#ffffff" stroke="transparent" points="-4,4 -4,-207 812,-207 812,4 -4,4"/>
<text text-anchor="start" x="383.0091" y="-42.4" font-family="sans-serif" font-weight="bold" font-size="14.00" fill="#000000">Legend</text>
<polygon fill="#ffffb3" stroke="transparent" points="170,-10 170,-30 190,-30 190,-10 170,-10"/>
<text text-anchor="start" x="193.629" y="-15.4" font-family="sans-serif" font-size="14.00" fill="#000000"> &#160;Declarations</text>
<polygon fill="#8dd3c7" stroke="transparent" points="283,-10 283,-30 303,-30 303,-10 283,-10"/>
<text text-anchor="start" x="306.7251" y="-15.4" font-family="sans-serif" font-size="14.00" fill="#000000"> &#160;Module</text>
<polygon fill="#80b1d3" stroke="transparent" points="369,-10 369,-30 389,-30 389,-10 369,-10"/>
<text text-anchor="start" x="392.7812" y="-15.4" font-family="sans-serif" font-size="14.00" fill="#000000"> &#160;Bootstrap</text>
<polygon fill="#fdb462" stroke="transparent" points="466,-10 466,-30 486,-30 486,-10 466,-10"/>
<text text-anchor="start" x="489.6732" y="-15.4" font-family="sans-serif" font-size="14.00" fill="#000000"> &#160;Providers</text>
<polygon fill="#fb8072" stroke="transparent" points="562,-10 562,-30 582,-30 582,-10 562,-10"/>
<text text-anchor="start" x="585.7258" y="-15.4" font-family="sans-serif" font-size="14.00" fill="#000000"> &#160;Exports</text>
<g id="clust1" class="cluster">
<title>cluster_TabsPageModule</title>
<polygon fill="none" stroke="#000000" stroke-dasharray="1,5" points="8,-70 8,-195 800,-195 800,-70 8,-70"/>
</g>
<g id="clust2" class="cluster">
<title>cluster_TabsPageModule_declarations</title>
<polygon fill="none" stroke="#000000" points="706,-78 706,-130 792,-130 792,-78 706,-78"/>
</g>
<g id="clust4" class="cluster">
<title>cluster_TabsPageModule_imports</title>
<polygon fill="none" stroke="#000000" points="16,-78 16,-130 698,-130 698,-78 16,-78"/>
</g>
<!-- TabsPage -->
<g id="node1" class="node">
<title>TabsPage</title>
<polygon fill="#ffffb3" stroke="#000000" points="784.4249,-122 713.5751,-122 713.5751,-86 784.4249,-86 784.4249,-122"/>
<text text-anchor="middle" x="749" y="-99.8" font-family="Times,serif" font-size="14.00" fill="#000000">TabsPage</text>
</g>
<!-- TabsPageModule -->
<g id="node2" class="node">
<title>TabsPageModule</title>
<polygon fill="#8dd3c7" stroke="#000000" points="500.9734,-187 497.9734,-191 476.9734,-191 473.9734,-187 387.0266,-187 387.0266,-151 500.9734,-151 500.9734,-187"/>
<text text-anchor="middle" x="444" y="-164.8" font-family="Times,serif" font-size="14.00" fill="#000000">TabsPageModule</text>
</g>
<!-- TabsPage&#45;&gt;TabsPageModule -->
<g id="edge1" class="edge">
<title>TabsPage&#45;&gt;TabsPageModule</title>
<path fill="none" stroke="#000000" d="M749,-122.2843C749,-143.3211 749,-175 749,-175 749,-175 511.0104,-175 511.0104,-175"/>
<polygon fill="#000000" stroke="#000000" points="511.0104,-171.5001 501.0104,-175 511.0103,-178.5001 511.0104,-171.5001"/>
</g>
<!-- InfoPageModule -->
<g id="node3" class="node">
<title>InfoPageModule</title>
<polygon fill="#8dd3c7" stroke="#000000" points="690.0828,-122 687.0828,-126 666.0828,-126 663.0828,-122 579.9172,-122 579.9172,-86 690.0828,-86 690.0828,-122"/>
<text text-anchor="middle" x="635" y="-99.8" font-family="Times,serif" font-size="14.00" fill="#000000">InfoPageModule</text>
</g>
<!-- InfoPageModule&#45;&gt;TabsPageModule -->
<g id="edge2" class="edge">
<title>InfoPageModule&#45;&gt;TabsPageModule</title>
<path fill="none" stroke="#000000" d="M635,-122.0225C635,-139.3734 635,-163 635,-163 635,-163 511.0476,-163 511.0476,-163"/>
<polygon fill="#000000" stroke="#000000" points="511.0476,-159.5001 501.0476,-163 511.0475,-166.5001 511.0476,-159.5001"/>
</g>
<!-- ListPageModule -->
<g id="node4" class="node">
<title>ListPageModule</title>
<polygon fill="#8dd3c7" stroke="#000000" points="562.041,-122 559.041,-126 538.041,-126 535.041,-122 453.959,-122 453.959,-86 562.041,-86 562.041,-122"/>
<text text-anchor="middle" x="508" y="-99.8" font-family="Times,serif" font-size="14.00" fill="#000000">ListPageModule</text>
</g>
<!-- ListPageModule&#45;&gt;TabsPageModule -->
<g id="edge3" class="edge">
<title>ListPageModule&#45;&gt;TabsPageModule</title>
<path fill="none" stroke="#000000" d="M477.3584,-122.1061C477.3584,-122.1061 477.3584,-140.991 477.3584,-140.991"/>
<polygon fill="#000000" stroke="#000000" points="473.8584,-140.9909 477.3584,-150.991 480.8584,-140.991 473.8584,-140.9909"/>
</g>
<!-- MapPageModule -->
<g id="node5" class="node">
<title>MapPageModule</title>
<polygon fill="#8dd3c7" stroke="#000000" points="436.4216,-122 433.4216,-126 412.4216,-126 409.4216,-122 323.5784,-122 323.5784,-86 436.4216,-86 436.4216,-122"/>
<text text-anchor="middle" x="380" y="-99.8" font-family="Times,serif" font-size="14.00" fill="#000000">MapPageModule</text>
</g>
<!-- MapPageModule&#45;&gt;TabsPageModule -->
<g id="edge4" class="edge">
<title>MapPageModule&#45;&gt;TabsPageModule</title>
<path fill="none" stroke="#000000" d="M411.6119,-122.1061C411.6119,-122.1061 411.6119,-140.991 411.6119,-140.991"/>
<polygon fill="#000000" stroke="#000000" points="408.1119,-140.9909 411.6119,-150.991 415.1119,-140.991 408.1119,-140.9909"/>
</g>
<!-- SettingsPageModule -->
<g id="node6" class="node">
<title>SettingsPageModule</title>
<polygon fill="#8dd3c7" stroke="#000000" points="305.8753,-122 302.8753,-126 281.8753,-126 278.8753,-122 174.1247,-122 174.1247,-86 305.8753,-86 305.8753,-122"/>
<text text-anchor="middle" x="240" y="-99.8" font-family="Times,serif" font-size="14.00" fill="#000000">SettingsPageModule</text>
</g>
<!-- SettingsPageModule&#45;&gt;TabsPageModule -->
<g id="edge5" class="edge">
<title>SettingsPageModule&#45;&gt;TabsPageModule</title>
<path fill="none" stroke="#000000" d="M240,-122.0225C240,-139.3734 240,-163 240,-163 240,-163 376.9034,-163 376.9034,-163"/>
<polygon fill="#000000" stroke="#000000" points="376.9034,-166.5001 386.9034,-163 376.9033,-159.5001 376.9034,-166.5001"/>
</g>
<!-- TabsRoutingModule -->
<g id="node7" class="node">
<title>TabsRoutingModule</title>
<polygon fill="#8dd3c7" stroke="#000000" points="155.8795,-122 152.8795,-126 131.8795,-126 128.8795,-122 24.1205,-122 24.1205,-86 155.8795,-86 155.8795,-122"/>
<text text-anchor="middle" x="90" y="-99.8" font-family="Times,serif" font-size="14.00" fill="#000000">TabsRoutingModule</text>
</g>
<!-- TabsRoutingModule&#45;&gt;TabsPageModule -->
<g id="edge6" class="edge">
<title>TabsRoutingModule&#45;&gt;TabsPageModule</title>
<path fill="none" stroke="#000000" d="M90,-122.2843C90,-143.3211 90,-175 90,-175 90,-175 376.7303,-175 376.7303,-175"/>
<polygon fill="#000000" stroke="#000000" points="376.7304,-178.5001 386.7303,-175 376.7303,-171.5001 376.7304,-178.5001"/>
</g>
</g>
</svg>
