<?xml version="1.0" encoding="UTF-8" standalone="no"?>
<!DOCTYPE svg PUBLIC "-//W3C//DTD SVG 1.1//EN"
 "http://www.w3.org/Graphics/SVG/1.1/DTD/svg11.dtd">
<!-- Generated by graphviz version 2.40.1 (20161225.0304)
 -->
<!-- Title: dependencies Pages: 1 -->
<svg width="1282pt" height="287pt"
 viewBox="0.00 0.00 1282.00 287.00" xmlns="http://www.w3.org/2000/svg" xmlns:xlink="http://www.w3.org/1999/xlink">
<g id="graph0" class="graph" transform="scale(1 1) rotate(0) translate(4 283)">
<title>dependencies</title>
<polygon fill="#ffffff" stroke="transparent" points="-4,4 -4,-283 1278,-283 1278,4 -4,4"/>
<text text-anchor="start" x="616.0091" y="-42.4" font-family="sans-serif" font-weight="bold" font-size="14.00" fill="#000000">Legend</text>
<polygon fill="#ffffb3" stroke="transparent" points="403,-10 403,-30 423,-30 423,-10 403,-10"/>
<text text-anchor="start" x="426.629" y="-15.4" font-family="sans-serif" font-size="14.00" fill="#000000"> &#160;Declarations</text>
<polygon fill="#8dd3c7" stroke="transparent" points="516,-10 516,-30 536,-30 536,-10 516,-10"/>
<text text-anchor="start" x="539.7251" y="-15.4" font-family="sans-serif" font-size="14.00" fill="#000000"> &#160;Module</text>
<polygon fill="#80b1d3" stroke="transparent" points="602,-10 602,-30 622,-30 622,-10 602,-10"/>
<text text-anchor="start" x="625.7812" y="-15.4" font-family="sans-serif" font-size="14.00" fill="#000000"> &#160;Bootstrap</text>
<polygon fill="#fdb462" stroke="transparent" points="699,-10 699,-30 719,-30 719,-10 699,-10"/>
<text text-anchor="start" x="722.6732" y="-15.4" font-family="sans-serif" font-size="14.00" fill="#000000"> &#160;Providers</text>
<polygon fill="#fb8072" stroke="transparent" points="795,-10 795,-30 815,-30 815,-10 795,-10"/>
<text text-anchor="start" x="818.7258" y="-15.4" font-family="sans-serif" font-size="14.00" fill="#000000"> &#160;Exports</text>
<g id="clust1" class="cluster">
<title>cluster_AppModule</title>
<polygon fill="none" stroke="#000000" stroke-dasharray="1,5" points="8,-70 8,-271 298,-271 298,-70 8,-70"/>
</g>
<g id="clust2" class="cluster">
<title>cluster_AppModule_declarations</title>
<polygon fill="none" stroke="#000000" points="168,-78 168,-130 290,-130 290,-78 168,-78"/>
</g>
<g id="clust4" class="cluster">
<title>cluster_AppModule_imports</title>
<polygon fill="none" stroke="#000000" points="16,-78 16,-130 160,-130 160,-78 16,-78"/>
</g>
<g id="clust6" class="cluster">
<title>cluster_AppModule_bootstrap</title>
<polygon fill="none" stroke="#000000" points="96,-211 96,-263 220,-263 220,-211 96,-211"/>
</g>
<g id="clust14" class="cluster">
<title>cluster_HomePageModule</title>
<polygon fill="none" stroke="#000000" stroke-dasharray="1,5" points="306,-70 306,-198 442,-198 442,-70 306,-70"/>
</g>
<g id="clust15" class="cluster">
<title>cluster_HomePageModule_declarations</title>
<polygon fill="none" stroke="#000000" points="327,-78 327,-130 421,-130 421,-78 327,-78"/>
</g>
<g id="clust21" class="cluster">
<title>cluster_InfoPageModule</title>
<polygon fill="none" stroke="#000000" stroke-dasharray="1,5" points="450,-70 450,-198 576,-198 576,-70 450,-70"/>
</g>
<g id="clust22" class="cluster">
<title>cluster_InfoPageModule_declarations</title>
<polygon fill="none" stroke="#000000" points="472,-78 472,-130 554,-130 554,-78 472,-78"/>
</g>
<g id="clust28" class="cluster">
<title>cluster_ListPageModule</title>
<polygon fill="none" stroke="#000000" stroke-dasharray="1,5" points="850,-70 850,-198 974,-198 974,-70 850,-70"/>
</g>
<g id="clust29" class="cluster">
<title>cluster_ListPageModule_declarations</title>
<polygon fill="none" stroke="#000000" points="872,-78 872,-130 952,-130 952,-78 872,-78"/>
</g>
<g id="clust35" class="cluster">
<title>cluster_MapPageModule</title>
<polygon fill="none" stroke="#000000" stroke-dasharray="1,5" points="982,-70 982,-198 1110,-198 1110,-70 982,-70"/>
</g>
<g id="clust36" class="cluster">
<title>cluster_MapPageModule_declarations</title>
<polygon fill="none" stroke="#000000" points="1004,-78 1004,-130 1088,-130 1088,-78 1004,-78"/>
</g>
<g id="clust42" class="cluster">
<title>cluster_SettingsPageModule</title>
<polygon fill="none" stroke="#000000" stroke-dasharray="1,5" points="1118,-70 1118,-198 1266,-198 1266,-70 1118,-70"/>
</g>
<g id="clust43" class="cluster">
<title>cluster_SettingsPageModule_declarations</title>
<polygon fill="none" stroke="#000000" points="1140,-78 1140,-130 1244,-130 1244,-78 1140,-78"/>
</g>
<g id="clust49" class="cluster">
<title>cluster_TabsPageModule</title>
<polygon fill="none" stroke="#000000" stroke-dasharray="1,5" points="584,-138 584,-263 842,-263 842,-138 584,-138"/>
</g>
<g id="clust50" class="cluster">
<title>cluster_TabsPageModule_declarations</title>
<polygon fill="none" stroke="#000000" points="748,-146 748,-198 834,-198 834,-146 748,-146"/>
</g>
<g id="clust52" class="cluster">
<title>cluster_TabsPageModule_imports</title>
<polygon fill="none" stroke="#000000" points="592,-146 592,-198 740,-198 740,-146 592,-146"/>
</g>
<!-- AppComponent -->
<g id="node1" class="node">
<title>AppComponent</title>
<polygon fill="#ffffb3" stroke="#000000" points="281.9399,-122 176.0601,-122 176.0601,-86 281.9399,-86 281.9399,-122"/>
<text text-anchor="middle" x="229" y="-99.8" font-family="Times,serif" font-size="14.00" fill="#000000">AppComponent</text>
</g>
<!-- AppModule -->
<g id="node2" class="node">
<title>AppModule</title>
<polygon fill="#8dd3c7" stroke="#000000" points="199.6571,-190 196.6571,-194 175.6571,-194 172.6571,-190 116.3429,-190 116.3429,-154 199.6571,-154 199.6571,-190"/>
<text text-anchor="middle" x="158" y="-167.8" font-family="Times,serif" font-size="14.00" fill="#000000">AppModule</text>
</g>
<!-- AppComponent&#45;&gt;AppModule -->
<g id="edge1" class="edge">
<title>AppComponent&#45;&gt;AppModule</title>
<path fill="none" stroke="#000000" d="M188.0544,-122.2228C188.0544,-122.2228 188.0544,-143.7269 188.0544,-143.7269"/>
<polygon fill="#000000" stroke="#000000" points="184.5544,-143.7269 188.0544,-153.7269 191.5544,-143.727 184.5544,-143.7269"/>
</g>
<!-- AppComponent  -->
<g id="node4" class="node">
<title>AppComponent </title>
<polygon fill="#80b1d3" stroke="#000000" points="212.439,-255 103.561,-255 103.561,-219 212.439,-219 212.439,-255"/>
<text text-anchor="middle" x="158" y="-232.8" font-family="Times,serif" font-size="14.00" fill="#000000">AppComponent </text>
</g>
<!-- AppModule&#45;&gt;AppComponent  -->
<g id="edge3" class="edge">
<title>AppModule&#45;&gt;AppComponent </title>
<path fill="none" stroke="#000000" stroke-dasharray="1,5" d="M158,-190.1061C158,-190.1061 158,-208.991 158,-208.991"/>
<polygon fill="#000000" stroke="#000000" points="154.5001,-208.9909 158,-218.991 161.5001,-208.991 154.5001,-208.9909"/>
</g>
<!-- AppRoutingModule -->
<g id="node3" class="node">
<title>AppRoutingModule</title>
<polygon fill="#8dd3c7" stroke="#000000" points="152.2744,-122 149.2744,-126 128.2744,-126 125.2744,-122 23.7256,-122 23.7256,-86 152.2744,-86 152.2744,-122"/>
<text text-anchor="middle" x="88" y="-99.8" font-family="Times,serif" font-size="14.00" fill="#000000">AppRoutingModule</text>
</g>
<!-- AppRoutingModule&#45;&gt;AppModule -->
<g id="edge2" class="edge">
<title>AppRoutingModule&#45;&gt;AppModule</title>
<path fill="none" stroke="#000000" d="M134.2795,-122.2228C134.2795,-122.2228 134.2795,-143.7269 134.2795,-143.7269"/>
<polygon fill="#000000" stroke="#000000" points="130.7795,-143.7269 134.2795,-153.7269 137.7795,-143.727 130.7795,-143.7269"/>
</g>
<!-- HomePage -->
<g id="node5" class="node">
<title>HomePage</title>
<polygon fill="#ffffb3" stroke="#000000" points="412.9248,-122 335.0752,-122 335.0752,-86 412.9248,-86 412.9248,-122"/>
<text text-anchor="middle" x="374" y="-99.8" font-family="Times,serif" font-size="14.00" fill="#000000">HomePage</text>
</g>
<!-- HomePageModule -->
<g id="node6" class="node">
<title>HomePageModule</title>
<polygon fill="#8dd3c7" stroke="#000000" points="434.4734,-190 431.4734,-194 410.4734,-194 407.4734,-190 313.5266,-190 313.5266,-154 434.4734,-154 434.4734,-190"/>
<text text-anchor="middle" x="374" y="-167.8" font-family="Times,serif" font-size="14.00" fill="#000000">HomePageModule</text>
</g>
<!-- HomePage&#45;&gt;HomePageModule -->
<g id="edge4" class="edge">
<title>HomePage&#45;&gt;HomePageModule</title>
<path fill="none" stroke="#000000" d="M374,-122.2228C374,-122.2228 374,-143.7269 374,-143.7269"/>
<polygon fill="#000000" stroke="#000000" points="370.5001,-143.7269 374,-153.7269 377.5001,-143.727 370.5001,-143.7269"/>
</g>
<!-- InfoPage -->
<g id="node7" class="node">
<title>InfoPage</title>
<polygon fill="#ffffb3" stroke="#000000" points="546.0346,-122 479.9654,-122 479.9654,-86 546.0346,-86 546.0346,-122"/>
<text text-anchor="middle" x="513" y="-99.8" font-family="Times,serif" font-size="14.00" fill="#000000">InfoPage</text>
</g>
<!-- InfoPageModule -->
<g id="node8" class="node">
<title>InfoPageModule</title>
<polygon fill="#8dd3c7" stroke="#000000" points="568.0828,-190 565.0828,-194 544.0828,-194 541.0828,-190 457.9172,-190 457.9172,-154 568.0828,-154 568.0828,-190"/>
<text text-anchor="middle" x="513" y="-167.8" font-family="Times,serif" font-size="14.00" fill="#000000">InfoPageModule</text>
</g>
<!-- InfoPage&#45;&gt;InfoPageModule -->
<g id="edge5" class="edge">
<title>InfoPage&#45;&gt;InfoPageModule</title>
<path fill="none" stroke="#000000" d="M513,-122.2228C513,-122.2228 513,-143.7269 513,-143.7269"/>
<polygon fill="#000000" stroke="#000000" points="509.5001,-143.7269 513,-153.7269 516.5001,-143.727 509.5001,-143.7269"/>
</g>
<!-- TabsPageModule -->
<g id="node16" class="node">
<title>TabsPageModule</title>
<polygon fill="#8dd3c7" stroke="#000000" points="833.9734,-255 830.9734,-259 809.9734,-259 806.9734,-255 720.0266,-255 720.0266,-219 833.9734,-219 833.9734,-255"/>
<text text-anchor="middle" x="777" y="-232.8" font-family="Times,serif" font-size="14.00" fill="#000000">TabsPageModule</text>
</g>
<!-- InfoPageModule&#45;&gt;TabsPageModule -->
<g id="edge10" class="edge">
<title>InfoPageModule&#45;&gt;TabsPageModule</title>
<path fill="none" stroke="#000000" d="M513,-190.1061C513,-209.3391 513,-237 513,-237 513,-237 709.7159,-237 709.7159,-237"/>
<polygon fill="#000000" stroke="#000000" points="709.716,-240.5001 719.7159,-237 709.7159,-233.5001 709.716,-240.5001"/>
</g>
<!-- ListPage -->
<g id="node9" class="node">
<title>ListPage</title>
<polygon fill="#ffffb3" stroke="#000000" points="944.4902,-122 879.5098,-122 879.5098,-86 944.4902,-86 944.4902,-122"/>
<text text-anchor="middle" x="912" y="-99.8" font-family="Times,serif" font-size="14.00" fill="#000000">ListPage</text>
</g>
<!-- ListPageModule -->
<g id="node10" class="node">
<title>ListPageModule</title>
<polygon fill="#8dd3c7" stroke="#000000" points="966.041,-190 963.041,-194 942.041,-194 939.041,-190 857.959,-190 857.959,-154 966.041,-154 966.041,-190"/>
<text text-anchor="middle" x="912" y="-167.8" font-family="Times,serif" font-size="14.00" fill="#000000">ListPageModule</text>
</g>
<!-- ListPage&#45;&gt;ListPageModule -->
<g id="edge6" class="edge">
<title>ListPage&#45;&gt;ListPageModule</title>
<path fill="none" stroke="#000000" d="M912,-122.2228C912,-122.2228 912,-143.7269 912,-143.7269"/>
<polygon fill="#000000" stroke="#000000" points="908.5001,-143.7269 912,-153.7269 915.5001,-143.727 908.5001,-143.7269"/>
</g>
<!-- ListPageModule&#45;&gt;TabsPageModule -->
<g id="edge11" class="edge">
<title>ListPageModule&#45;&gt;TabsPageModule</title>
<path fill="none" stroke="#000000" d="M857.8271,-172C842.5963,-172 830.0993,-172 830.0993,-172 830.0993,-172 830.0993,-208.8939 830.0993,-208.8939"/>
<polygon fill="#000000" stroke="#000000" points="826.5993,-208.8938 830.0993,-218.8939 833.5993,-208.8939 826.5993,-208.8938"/>
</g>
<!-- MapPage -->
<g id="node11" class="node">
<title>MapPage</title>
<polygon fill="#ffffb3" stroke="#000000" points="1080.3711,-122 1011.6289,-122 1011.6289,-86 1080.3711,-86 1080.3711,-122"/>
<text text-anchor="middle" x="1046" y="-99.8" font-family="Times,serif" font-size="14.00" fill="#000000">MapPage</text>
</g>
<!-- MapPageModule -->
<g id="node12" class="node">
<title>MapPageModule</title>
<polygon fill="#8dd3c7" stroke="#000000" points="1102.4216,-190 1099.4216,-194 1078.4216,-194 1075.4216,-190 989.5784,-190 989.5784,-154 1102.4216,-154 1102.4216,-190"/>
<text text-anchor="middle" x="1046" y="-167.8" font-family="Times,serif" font-size="14.00" fill="#000000">MapPageModule</text>
</g>
<!-- MapPage&#45;&gt;MapPageModule -->
<g id="edge7" class="edge">
<title>MapPage&#45;&gt;MapPageModule</title>
<path fill="none" stroke="#000000" d="M1046,-122.2228C1046,-122.2228 1046,-143.7269 1046,-143.7269"/>
<polygon fill="#000000" stroke="#000000" points="1042.5001,-143.7269 1046,-153.7269 1049.5001,-143.727 1042.5001,-143.7269"/>
</g>
<!-- MapPageModule&#45;&gt;TabsPageModule -->
<g id="edge12" class="edge">
<title>MapPageModule&#45;&gt;TabsPageModule</title>
<path fill="none" stroke="#000000" d="M1046,-190.0225C1046,-207.3734 1046,-231 1046,-231 1046,-231 844.048,-231 844.048,-231"/>
<polygon fill="#000000" stroke="#000000" points="844.048,-227.5001 834.048,-231 844.0479,-234.5001 844.048,-227.5001"/>
</g>
<!-- SettingsPage -->
<g id="node13" class="node">
<title>SettingsPage</title>
<polygon fill="#ffffb3" stroke="#000000" points="1236.326,-122 1147.674,-122 1147.674,-86 1236.326,-86 1236.326,-122"/>
<text text-anchor="middle" x="1192" y="-99.8" font-family="Times,serif" font-size="14.00" fill="#000000">SettingsPage</text>
</g>
<!-- SettingsPageModule -->
<g id="node14" class="node">
<title>SettingsPageModule</title>
<polygon fill="#8dd3c7" stroke="#000000" points="1257.8753,-190 1254.8753,-194 1233.8753,-194 1230.8753,-190 1126.1247,-190 1126.1247,-154 1257.8753,-154 1257.8753,-190"/>
<text text-anchor="middle" x="1192" y="-167.8" font-family="Times,serif" font-size="14.00" fill="#000000">SettingsPageModule</text>
</g>
<!-- SettingsPage&#45;&gt;SettingsPageModule -->
<g id="edge8" class="edge">
<title>SettingsPage&#45;&gt;SettingsPageModule</title>
<path fill="none" stroke="#000000" d="M1192,-122.2228C1192,-122.2228 1192,-143.7269 1192,-143.7269"/>
<polygon fill="#000000" stroke="#000000" points="1188.5001,-143.7269 1192,-153.7269 1195.5001,-143.727 1188.5001,-143.7269"/>
</g>
<!-- SettingsPageModule&#45;&gt;TabsPageModule -->
<g id="edge13" class="edge">
<title>SettingsPageModule&#45;&gt;TabsPageModule</title>
<path fill="none" stroke="#000000" d="M1192,-190.2843C1192,-211.3211 1192,-243 1192,-243 1192,-243 844.2683,-243 844.2683,-243"/>
<polygon fill="#000000" stroke="#000000" points="844.2683,-239.5001 834.2683,-243 844.2682,-246.5001 844.2683,-239.5001"/>
</g>
<!-- TabsPage -->
<g id="node15" class="node">
<title>TabsPage</title>
<polygon fill="#ffffb3" stroke="#000000" points="826.4249,-190 755.5751,-190 755.5751,-154 826.4249,-154 826.4249,-190"/>
<text text-anchor="middle" x="791" y="-167.8" font-family="Times,serif" font-size="14.00" fill="#000000">TabsPage</text>
</g>
<!-- TabsPage&#45;&gt;TabsPageModule -->
<g id="edge9" class="edge">
<title>TabsPage&#45;&gt;TabsPageModule</title>
<path fill="none" stroke="#000000" d="M791,-190.1061C791,-190.1061 791,-208.991 791,-208.991"/>
<polygon fill="#000000" stroke="#000000" points="787.5001,-208.9909 791,-218.991 794.5001,-208.991 787.5001,-208.9909"/>
</g>
<!-- TabsRoutingModule -->
<g id="node17" class="node">
<title>TabsRoutingModule</title>
<polygon fill="#8dd3c7" stroke="#000000" points="731.8795,-190 728.8795,-194 707.8795,-194 704.8795,-190 600.1205,-190 600.1205,-154 731.8795,-154 731.8795,-190"/>
<text text-anchor="middle" x="666" y="-167.8" font-family="Times,serif" font-size="14.00" fill="#000000">TabsRoutingModule</text>
</g>
<!-- TabsRoutingModule&#45;&gt;TabsPageModule -->
<g id="edge14" class="edge">
<title>TabsRoutingModule&#45;&gt;TabsPageModule</title>
<path fill="none" stroke="#000000" d="M725.9765,-190.1061C725.9765,-190.1061 725.9765,-208.991 725.9765,-208.991"/>
<polygon fill="#000000" stroke="#000000" points="722.4766,-208.9909 725.9765,-218.991 729.4766,-208.991 722.4766,-208.9909"/>
</g>
</g>
</svg>
